Simulation
nRows=38
nColumns=15
endheader
time  TH_x TH_y TH_z SC_y  SC_z  SC_x  AC_y  AC_z  AC_x  GH_y  GH_z  GH_yy  EL_x  PS_y
1.549999999999999  0.000000  0.000000  0.000000  -34.46832920323175  7.145098232482015  20.018521047914426  59.21924057702264  9.302017040428165  -2.986252121453482  16.01700187331444  56.999647212195676  -17.752068919175755  17.938158677534762  0.000000
1.5809999999999989  0.000000  0.000000  0.000000  -34.80021864370004  7.399249335134411  20.21468711270627  59.34243012186769  9.592995549559589  -2.487149266233648  15.571772640547628  57.65989176908763  -17.613612994307204  17.92060198755387  0.000000
1.611999999999999  0.000000  0.000000  0.000000  -35.103165579871565  7.622031342646093  20.381048724774015  59.45053510533625  9.853998267145133  -2.0403522045406315  15.183555142786227  58.2350860046693  -17.492871072964093  17.911935515596603  0.000000
1.642999999999999  0.000000  0.000000  0.000000  -35.374882591203885  7.80911008158892  20.518209984595885  59.54497901346102  10.082528793934065  -1.6544014769692734  14.857479649022299  58.71370960966383  -17.389585120056417  17.91386525223493  0.000000
1.6739999999999988  0.000000  0.000000  0.000000  -35.614773446486865  7.959096121703637  20.626610326277895  59.62552967900797  10.276232353952423  -1.3354750462175689  14.601124026598647  59.083647973634825  -17.305736929126983  17.92631173495745  0.000000
1.7049999999999987  0.000000  0.000000  0.000000  -35.82238748214466  8.073118656663526  20.70569155246801  59.69022249351751  10.432803232853809  -1.0874496599536099  14.423234532181308  59.33357908669557  -17.244658522433173  17.94724395524683  0.000000
1.7359999999999989  0.000000  0.000000  0.000000  -35.99560957793491  8.15343062097309  20.753361932790153  59.73603756148146  10.549893385451936  -0.9126085302809226  14.33164101453018  59.45458158239074  -17.210872831873008  17.97329557179585  0.000000
1.7669999999999988  0.000000  0.000000  0.000000  -36.12959487131965  8.201791842082  20.766222277576542  59.75988580709238  10.625297311757768  -0.8124784875188461  14.331451743957395  59.44097236739258  -17.21048729961226  18.00058573273752  0.000000
1.7979999999999987  0.000000  0.000000  0.000000  -36.21707777413389  8.218303890157546  20.74038601964385  59.7596649735669  10.65743393289255  -0.7883252078464972  14.424242007798723  59.29023982165222  -17.251685883034593  18.025476961670147  0.000000
1.8289999999999988  0.000000  0.000000  0.000000  -36.25006771624244  8.200876458611123  20.672894251884657  59.735052093436366  10.64579474989355  -0.8413268468455849  14.608343999288326  59.002156858270894  -17.344798338612904  18.045200702743262  0.000000
1.8599999999999988  0.000000  0.000000  0.000000  -36.22183964140785  8.145524721999909  20.562875837019774  59.687719450812395  10.591110085385345  -0.9724976514048468  14.879689366633865  58.577969984552006  -17.501377720686296  18.058355134351164  0.000000
1.8909999999999987  0.000000  0.000000  0.000000  -36.128693119679454  8.047458207135973  20.411867618278098  59.62079752965412  10.494941631894754  -1.18235656802583  15.232882432459904  58.020307347746105  -17.732071263863652  18.06537656513082  0.000000
1.9219999999999986  0.000000  0.000000  0.000000  -35.97087474642395  7.9026615003333704  20.223333998223055  59.53777096147898  10.358667827309466  -1.470627725423239  15.662152736230189  57.334018180038946  -18.043549378281355  18.068945693844174  0.000000
1.9529999999999987  0.000000  0.000000  0.000000  -35.75255619400345  7.709466913305465  20.001667961520905  59.441000556286674  10.182608386680203  -1.835886834740671  16.16199654708477  56.52707783875145  -18.435572559932005  18.074088517679275  0.000000
1.9839999999999987  0.000000  0.000000  0.000000  -35.48107117738111  7.469166490717185  19.751071575294112  59.3309257745297  9.965965322279366  -2.275270299765183  16.72744983044257  55.61104397922983  -18.900058663916006  18.087621381731903  0.000000
2.014999999999999  0.000000  0.000000  0.000000  -35.16584490314817  7.185586093477829  19.475046601405857  59.20631485806391  9.70731556419133  -2.784217683568073  17.354003659821934  54.600590729078945  -19.42273500655042  18.116652464258188  0.000000
2.0459999999999985  0.000000  0.000000  0.000000  -34.81711313635022  6.863741090878435  19.17649556544626  59.06530642867966  9.40546914768457  -3.3565351287715313  18.037231701868244  53.512453579528405  -19.986713577600337  18.166543331252985  0.000000
2.0769999999999986  0.000000  0.000000  0.000000  -34.44530907547696  6.508454163345672  18.8580938081658  58.90653503164993  9.060201816835342  -3.9847303244707977  18.772434208835424  52.36421481999638  -20.576059164078725  18.239387046927966  0.000000
2.1079999999999988  0.000000  0.000000  0.000000  -34.06096403898066  6.124017684574265  18.522503617553895  58.7299545717808  8.672218022668591  -4.6604466608674135  19.554312997687553  51.173520062878005  -21.177842191664592  18.333601904950047  0.000000
2.1389999999999985  0.000000  0.000000  0.000000  -33.67440094876899  5.714069379973468  18.172128824520524  58.537092618782005  8.242612197771201  -5.374518550101233  20.37620921382402  49.9579153637497  -21.781930557721704  18.444548581104144  0.000000
2.1699999999999986  0.000000  0.000000  0.000000  -33.295449708952475  5.281801563310911  17.808012771016852  58.3308203088222  7.772563814787474  -6.116352558679687  21.229420071493344  48.7349391321631  -22.379367697646554  18.565959127794848  0.000000
2.2009999999999983  0.000000  0.000000  0.000000  -32.93324170330271  4.83064621018236  17.42855340556105  58.11490584121023  7.263498333746817  -6.873080586178667  22.102520833382354  47.521714784626134  -22.960303275339264  18.691172940938902  0.000000
2.2319999999999984  0.000000  0.000000  0.000000  -32.596162179952806  4.364534689945324  17.02886706768886  57.89360288739327  6.717760847039305  -7.629036067595594  22.981237596480923  46.33395767944471  -23.512454274516852  18.81391391710919  0.000000
2.2629999999999986  0.000000  0.000000  0.000000  -32.29242299184158  3.8881160092958615  16.60083880352627  57.671160130322406  6.139453211642976  -8.365987104551794  23.849324273033524  45.184465548039945  -24.02075046952782  18.929694682157507  0.000000
2.2939999999999983  0.000000  0.000000  0.000000  -32.02950968469508  3.406590503287331  16.13398646397623  57.45101137800629  5.535449572401863  -9.064283158573087  24.689830752006646  44.08125192288778  -24.468340097107355  19.035449284497474  0.000000
2.3249999999999984  0.000000  0.000000  0.000000  -31.812783643056598  2.9252037478719592  15.616995746086717  57.234965810716105  4.9161616053255885  -9.704730031682441  25.48664246398906  43.02571584324761  -24.838860260778297  19.128563333740978  0.000000
2.3559999999999985  0.000000  0.000000  0.000000  -31.64491774261473  2.4490318902909207  15.039366705092089  57.02279029133494  4.2954945898417565  -10.270545510400984  26.227010441181424  42.01166004825816  -25.119371341674956  19.208016625244156  0.000000
2.3869999999999982  0.000000  0.000000  0.000000  -31.525406307878512  1.9828594077418482  14.393056061270515  56.81223372039624  3.690148432791016  -10.748940929688365  26.904008269054987  41.02532938267816  -25.303537199886684  19.274794434643397  0.000000
2.4179999999999984  0.000000  0.000000  0.000000  -31.44968381619137  1.5310821523206233  13.673958244989379  56.59973425738683  3.118499444460136  -11.132118284813803  27.51719221258306  40.04638557897104  -25.393582197863033  19.331178530701006  0.000000
2.4489999999999985  0.000000  0.000000  0.000000  -31.4090560703831  1.09773362244437  12.88327921808128  56.38185022160622  2.5991655736705503  -11.417441285524166  28.07190170432628  39.04954779934007  -25.40051804619768  19.379911592300004  0.000000
2.479999999999998  0.000000  0.000000  0.000000  -31.391183146739685  0.6865522582093413  12.028505806007328  56.15677381015229  2.149427720024634  -11.606977889187258  28.57788980770844  38.00706030810896  -25.342969107536582  19.42332436280303  0.000000
2.5109999999999983  0.000000  0.000000  0.000000  -31.381062038168476  0.3011253782513324  11.123729899867419  55.92544679388613  1.7838435836042577  -11.706731375243297  29.047865994859656  36.89159692312994  -25.24507294907212  19.462807774508263  0.000000
2.5419999999999985  0.000000  0.000000  0.000000  -31.362665489097072  -0.05502753259494418  10.189067389655332  55.691747468066964  1.5127968990599419  -11.725719485346364  29.49630964807093  35.679898823556215  -25.133547786405465  19.498759825559308  0.000000
2.572999999999998  0.000000  0.000000  0.000000  -31.3213140359128  -0.3783313204388437  9.249132110962675  55.46180461028158  1.341350287992491  -11.675354891401234  29.938935587685176  34.35630440996238  -25.034948585096323  19.531152628328222  0.000000
2.6039999999999983  0.000000  0.000000  0.000000  -31.246110084061282  -0.6650286439546594  8.329845943177181  55.24266931740039  1.2689584456694056  -11.568604966736322  30.392340273412447  32.91557811550505  -24.972936164548578  19.56003864810309  0.000000
2.634999999999998  0.000000  0.000000  0.000000  -31.132209179061704  -0.9116447124878867  7.454832743833255  55.04059978938007  1.2896679028837001  -11.419022306845978  30.87382401279474  31.363841130140226  -24.966756321623638  19.586455255427506  0.000000
2.665999999999998  0.000000  0.000000  0.000000  -30.981739746519235  -1.1160086084830396  6.642708072757839  54.859681577187104  1.3924656993366544  -11.24004583117623  31.40122652731631  29.71739410877338  -25.030899917772118  19.612483857294688  0.000000
2.6969999999999983  0.000000  0.000000  0.000000  -30.80239986353249  -1.278200930444488  5.905816777121608  54.701302143870855  1.562543319567823  -11.04462760359672  31.992295254167157  27.99930934170539  -25.175405725843788  19.64059862123931  0.000000
